<svg xmlns="http://www.w3.org/2000/svg" viewBox="0 0 640 480" role="img" aria-label="Фото профиля">
  <defs>
    <linearGradient id="bg" x1="0" x2="1" y1="0" y2="1">
      <stop offset="0%" stop-color="#f3c59b"/>
      <stop offset="55%" stop-color="#e8a874"/>
      <stop offset="100%" stop-color="#8fb3d9"/>
    </linearGradient>
    <linearGradient id="shadow" x1="0" x2="0" y1="0" y2="1">
      <stop offset="0%" stop-color="#000" stop-opacity="0"/>
      <stop offset="100%" stop-color="#000" stop-opacity="0.2"/>
    </linearGradient>
  </defs>
  <rect width="640" height="480" rx="28" fill="url(#bg)"/>
  <rect y="300" width="640" height="180" fill="url(#shadow)"/>
  <circle cx="210" cy="220" r="92" fill="#f0d3b5"/>
  <path d="M120 402c24-68 84-104 148-104s124 36 148 104" fill="#d59e7a"/>
  <path d="M140 210c28-72 98-96 166-78 52 14 92 58 100 108-30-36-74-58-122-58-58 0-110 30-144 76z" fill="#b87955"/>
  <rect x="360" y="110" width="220" height="240" rx="24" fill="#2f2f2f" opacity="0.7"/>
  <rect x="382" y="140" width="176" height="80" rx="16" fill="#4e4e4e"/>
  <text x="64" y="420" font-family="PT Sans, Arial, sans-serif" font-size="36" fill="#ffffff" opacity="0.85">Фото</text>
</svg>
